<svg height="189" viewBox="0 0 60 189" width="60" xmlns="http://www.w3.org/2000/svg"><g fill="none" fill-rule="evenodd" stroke-linecap="round" stroke-linejoin="round" stroke-width="2"><g stroke="#000" transform="translate(7 138)"><path d="m14 0c-3.999349 0-7.99934896 0-12 0-1.1045695 0-2 .89556421-2 2.00013371v15.99999999c0 1.1045695.8954305 2 2 2h12c1.1045695 0 2-.8954305 2-2 .0026042-5.4706842.0026042-10.80401751 0-15.99999999-.1684831-1.51634776-.7687356-1.8241051-2-2.00013371z"/><path d="m12 10.000134h-8"/><path d="m12 7.000134h-8"/><path d="m12 13.000134h-8"/><path d="m12 16.000134h-8"/><path d="m6 4.00013371h-1-1"/></g><g stroke="#3300e9" transform="translate(36 138)"><path d="m14 0c-3.999349 0-7.99934896 0-12 0-1.1045695 0-2 .89556421-2 2.00013371v15.99999999c0 1.1045695.8954305 2 2 2h12c1.1045695 0 2-.8954305 2-2 .0026042-5.4706842.0026042-10.80401751 0-15.99999999-.1684831-1.51634776-.7687356-1.8241051-2-2.00013371z"/><path d="m12 10.000134h-8"/><path d="m12 7.000134h-8"/><path d="m12 13.000134h-8"/><path d="m12 16.000134h-8"/><path d="m6 4.00013371h-1-1"/></g><g stroke="#000" transform="translate(6 105)"><path d="m0 4h2 16"/><path d="m16 4v14c0 1.1045695-.8954305 2-2 2h-10c-1.1045695 0-2-.8954305-2-2v-14m3 0v-2c0-1.1045695.8954305-2 2-2h4c1.1045695 0 2 .8954305 2 2v2"/><path d="m7 9v6"/><path d="m11 9v6"/></g><g stroke="#3300e9" transform="translate(35 105)"><path d="m0 4h2 16"/><path d="m16 4v14c0 1.1045695-.8954305 2-2 2h-10c-1.1045695 0-2-.8954305-2-2v-14m3 0v-2c0-1.1045695.8954305-2 2-2h4c1.1045695 0 2 .8954305 2 2v2"/><path d="m7 9v6"/><path d="m11 9v6"/></g><path d="m20 0h-20l8 9.46v6.54l4 2v-8.54z" stroke="#000" transform="translate(5 41)"/><path d="m20 0h-20l8 9.46v6.54l4 2v-8.54z" fill="#3300e9" stroke="#3300e9" transform="translate(34 41)"/><g stroke="#000"><circle cx="15" cy="82" r="10"/><path d="m15 78v8"/><path d="m11 82h8"/></g><g stroke="#3300e9"><circle cx="44" cy="82" r="10"/><path d="m44 78v8"/><path d="m40 82h8"/></g><g stroke="#000" transform="translate(5 5)"><circle cx="10" cy="10" r="10"/><path d="m7.09 7c.48543688-1.37995556 1.89538362-2.20859368 3.3371763-1.9612879 1.4417927.24730578 2.4950031 1.49844083 2.4928271 2.9612879 0 2-3.0000034 3-3.0000034 3"/><path d="m10 15h.01"/></g><g stroke="#3300e9" transform="translate(34 5)"><circle cx="10" cy="10" r="10"/><path d="m7.09 7c.48543688-1.37995556 1.89538362-2.20859368 3.3371763-1.9612879 1.4417927.24730578 2.4950031 1.49844083 2.4928271 2.9612879 0 2-3.0000034 3-3.0000034 3"/><path d="m10 15h.01"/></g><g stroke="#000"><path d="m11.495 171.5h13"/><path d="m11.495 177.5h13"/><path d="m11.495 183.5h13"/><path d="m6.495 171.5h.01"/><path d="m6.495 177.5h.01"/><path d="m6.495 183.5h.01"/></g><g stroke="#3300e9"><path d="m40.495 171.5h13"/><path d="m40.495 177.5h13"/><path d="m40.495 183.5h13"/><path d="m35.495 171.5h.01"/><path d="m35.495 177.5h.01"/><path d="m35.495 183.5h.01"/></g></g></svg>