<svg height="100" viewBox="0 0 100 100" width="100" xmlns="http://www.w3.org/2000/svg"><g fill="none" fill-rule="evenodd"><circle cx="50" cy="50" fill="#d2c9f4" r="50"/><path d="m16.9505709 18.1538462h11.5736178c.5225361 0 .9505709.4287081.9505709.9520661v11.8980426c0 .523358-.4280348.9520661-.9505709.9520661h-11.5736178c-.522536-.0055676-.9505709-.4287081-.9505709-.9520661v-11.8980426c0-.523358.4280349-.9520661.9505709-.9520661zm.1167368 50.1978251h22.6580529c.522536 0 .9505709.4287081.9505709.9520661v11.8980426c0 .523358-.4280349.9520662-.9505709.9520662h-22.6580529c-.5225361 0-.9505709-.4287082-.9505709-.9520662v-11.9036102c.0055589-.523358.4280348-.9464985.9505709-.9464985zm54.8051382 0h11.4124099c.522536 0 .9505709.4287081.9505709.9520661v11.8980426c0 .523358-.4280349.9520662-.9505709.9520662h-11.4124099c-.522536 0-.9505709-.4287082-.9505709-.9520662v-11.9036102c0-.523358.4280349-.9464985.9505709-.9464985zm-27.3330829 0h22.6580529c.522536 0 .9505709.4287081.9505709.9520661v11.8980426c0 .523358-.4280349.9520662-.9505709.9520662h-22.6580529c-.5225361 0-.9505709-.4287082-.9505709-.9520662v-11.9036102c0-.523358.4280348-.9464985.9505709-.9464985zm16.1597055-16.7363201h22.6580529c.5225361 0 .9505709.4287081.9505709.9520661v11.8980426c0 .523358-.4280348.9520661-.9505709.9520661h-22.6580529c-.522536 0-.9505709-.4287081-.9505709-.9520661v-11.8980426c0-.523358.4280349-.9520661.9505709-.9520661zm-27.3942308 0h22.6580529c.5225361 0 .9505709.4287081.9505709.9520661v11.8980426c0 .523358-.4280348.9520661-.9505709.9520661h-22.6580529c-.522536 0-.9505709-.4287081-.9505709-.9520661v-11.8980426c.0055589-.523358.4280349-.9520661.9505709-.9520661zm-16.3542668 0h11.5736178c.5225361 0 .9505709.4287081.9505709.9520661v11.8980426c0 .523358-.4280348.9520661-.9505709.9520661h-11.5736178c-.522536 0-.9505709-.4287081-.9505709-.9520661v-11.8980426c0-.523358.4280349-.9520661.9505709-.9520661zm.1167368-16.7307525h22.6580529c.522536 0 .9505709.4287081.9505709.9520661v11.8980426c0 .523358-.4280349.9520661-.9505709.9520661h-22.6580529c-.5225361 0-.9505709-.4287081-.9505709-.9520661v-11.8980426c.0055589-.523358.4280348-.9520661.9505709-.9520661zm54.8051382 0h11.4124099c.522536 0 .9505709.4287081.9505709.9520661v11.8980426c0 .523358-.4280349.9520661-.9505709.9520661h-11.4124099c-.522536 0-.9505709-.4287081-.9505709-.9520661v-11.8980426c0-.523358.4280349-.9520661.9505709-.9520661zm-27.3330829 0h22.6580529c.522536 0 .9505709.4287081.9505709.9520661v11.8980426c0 .523358-.4280349.9520661-.9505709.9520661h-22.6580529c-.5225361 0-.9505709-.4287081-.9505709-.9520661v-11.8980426c0-.523358.4280348-.9520661.9505709-.9520661zm16.1597055-16.7307525h22.6580529c.5225361 0 .9505709.4287081.9505709.9520661v11.8980426c0 .523358-.4280348.9520661-.9505709.9520661h-22.6580529c-.522536 0-.9505709-.4287081-.9505709-.9520661v-11.8980426c0-.523358.4280349-.9520661.9505709-.9520661zm-27.3942308 0h22.6580529c.5225361 0 .9505709.4287081.9505709.9520661v11.8980426c0 .523358-.4280348.9520661-.9505709.9520661h-22.6580529c-.522536 0-.9505709-.4287081-.9505709-.9520661v-11.8980426c.0055589-.523358.4280349-.9520661.9505709-.9520661z" fill="#3300e9" fill-rule="nonzero" stroke="#000" stroke-opacity=".149421"/></g></svg>