<svg height="350" viewBox="0 0 350 350" width="350" xmlns="http://www.w3.org/2000/svg"><g fill="none" fill-rule="evenodd"><circle cx="175" cy="175" fill="#d2c9f4" r="175"/><path d="m60.0871978 63.3783784h40.5495802c1.830769 0 3.330441 1.5017457 3.330441 3.3350458v41.6783208c0 1.8333-1.499672 3.335046-3.330441 3.335046h-40.5495802c-1.8307688-.019503-3.330441-1.501746-3.330441-3.335046v-41.6783208c0-1.8333001 1.4996722-3.3350458 3.330441-3.3350458zm.4090015 175.8407766h79.3852497c1.830769 0 3.330441 1.501746 3.330441 3.335046v41.678321c0 1.8333-1.499672 3.335046-3.330441 3.335046h-79.3852497c-1.8307687 0-3.330441-1.501746-3.330441-3.335046v-41.697824c.0194763-1.8333 1.4996723-3.315543 3.330441-3.315543zm192.0164807 0h39.984769c1.830768 0 3.330441 1.501746 3.330441 3.335046v41.678321c0 1.8333-1.499673 3.335046-3.330441 3.335046h-39.984769c-1.830769 0-3.330441-1.501746-3.330441-3.335046v-41.697824c0-1.8333 1.499672-3.315543 3.330441-3.315543zm-95.764787 0h79.385249c1.830769 0 3.330441 1.501746 3.330441 3.335046v41.678321c0 1.8333-1.499672 3.335046-3.330441 3.335046h-79.385249c-1.830769 0-3.330441-1.501746-3.330441-3.335046v-41.697824c0-1.8333 1.499672-3.315543 3.330441-3.315543zm56.617498-58.626594h79.385249c1.830769 0 3.330441 1.501746 3.330441 3.335046v41.67832c0 1.8333-1.499672 3.335046-3.330441 3.335046h-79.385249c-1.830769 0-3.330441-1.501746-3.330441-3.335046v-41.67832c0-1.8333 1.499672-3.335046 3.330441-3.335046zm-95.979026 0h79.385249c1.830769 0 3.330441 1.501746 3.330441 3.335046v41.67832c0 1.8333-1.499672 3.335046-3.330441 3.335046h-79.385249c-1.830769 0-3.330441-1.501746-3.330441-3.335046v-41.67832c.019476-1.8333 1.499672-3.335046 3.330441-3.335046zm-57.2991672 0h40.5495802c1.830769 0 3.330441 1.501746 3.330441 3.335046v41.67832c0 1.8333-1.499672 3.335046-3.330441 3.335046h-40.5495802c-1.8307688 0-3.330441-1.501746-3.330441-3.335046v-41.67832c0-1.8333 1.4996722-3.335046 3.330441-3.335046zm.4090015-58.607091h79.3852497c1.830769 0 3.330441 1.501745 3.330441 3.335045v41.678321c0 1.8333-1.499672 3.335046-3.330441 3.335046h-79.3852497c-1.8307687 0-3.330441-1.501746-3.330441-3.335046v-41.678321c.0194763-1.8333 1.4996723-3.335045 3.330441-3.335045zm192.0164807 0h39.984769c1.830768 0 3.330441 1.501745 3.330441 3.335045v41.678321c0 1.8333-1.499673 3.335046-3.330441 3.335046h-39.984769c-1.830769 0-3.330441-1.501746-3.330441-3.335046v-41.678321c0-1.8333 1.499672-3.335045 3.330441-3.335045zm-95.764787 0h79.385249c1.830769 0 3.330441 1.501745 3.330441 3.335045v41.678321c0 1.8333-1.499672 3.335046-3.330441 3.335046h-79.385249c-1.830769 0-3.330441-1.501746-3.330441-3.335046v-41.678321c0-1.8333 1.499672-3.335045 3.330441-3.335045zm56.617498-58.6070916h79.385249c1.830769 0 3.330441 1.5017457 3.330441 3.3350458v41.6783208c0 1.8333-1.499672 3.335046-3.330441 3.335046h-79.385249c-1.830769 0-3.330441-1.501746-3.330441-3.335046v-41.6783208c0-1.8333001 1.499672-3.3350458 3.330441-3.3350458zm-95.979026 0h79.385249c1.830769 0 3.330441 1.5017457 3.330441 3.3350458v41.6783208c0 1.8333-1.499672 3.335046-3.330441 3.335046h-79.385249c-1.830769 0-3.330441-1.501746-3.330441-3.335046v-41.6783208c.019476-1.8333001 1.499672-3.3350458 3.330441-3.3350458z" fill="#3300e9" fill-rule="nonzero" stroke="#000" stroke-opacity=".149421"/></g></svg>