<svg height="189" viewBox="0 0 30 189" width="30" xmlns="http://www.w3.org/2000/svg"><g fill="none" fill-rule="evenodd" stroke="#fff" stroke-linecap="round" stroke-linejoin="round"><g stroke-width="2" transform="translate(6 168)"><circle cx="9.5" cy="8.5" r="2.5"/><path d="m15.0545455 11.4545455c-.222829.5048918-.1159085 1.0945744.27 1.4890909l.0490909.0490909c.3072715.3069298.4799236.7234212.4799236 1.1577272 0 .4343061-.1726521.8507974-.4799236 1.1577273-.3069299.3072715-.7234213.4799236-1.1577273.4799236-.4343061 0-.8507974-.1726521-1.1577273-.4799236l-.0490909-.0490909c-.3945164-.3859084-.984199-.4928289-1.4890909-.27-.4945669.211965-.8160358.6973831-.8181818 1.2354546v.1390909c0 .9037386-.73262497 1.6363636-1.63636365 1.6363636-.90373869 0-1.63636364-.732625-1.63636364-1.6363636v-.0736364c-.01296278-.5541784-.36337764-1.0441103-.88363636-1.2354545-.50489188-.222829-1.09457449-.1159085-1.48909091.27l-.04909091.0490909c-.30692988.3072715-.72342123.4799236-1.15772728.4799236-.43430604 0-.85079739-.1726521-1.15772727-.4799236-.30727152-.3069299-.47992362-.7234213-.47992362-1.1577273 0-.4343061.1726521-.8507974.47992362-1.1577273l.04909091-.0490909c.38590845-.3945164.49282892-.984199.27-1.4890909-.21196496-.4945669-.69738306-.8160358-1.23545454-.8181818h-.13909091c-.90373868 0-1.63636364-.73262497-1.63636364-1.63636365 0-.90373869.73262496-1.63636364 1.63636364-1.63636364h.07363636c.55417842-.01296278 1.04411031-.36337764 1.23545455-.88363636.22282891-.50489188.11590844-1.09457449-.27-1.48909091l-.04909091-.04909091c-.30727153-.30692988-.47992362-.72342123-.47992362-1.15772728 0-.43430604.17265209-.85079739.47992362-1.15772727.30692987-.30727152.72342123-.47992362 1.15772727-.47992362s.8507974.1726521 1.15772727.47992362l.04909091.04909091c.39451642.38590845.98419903.49282892 1.48909091.27h.06545455c.49456686-.21196496.8160358-.69738306.81818181-1.23545454v-.13909091c0-.90373868.73262496-1.63636364 1.63636364-1.63636364s1.6363636.73262496 1.6363636 1.63636364v.07363636c.002146.53807148.323615 1.02348959.8181819 1.23545455.5048918.22282891 1.0945744.11590844 1.4890909-.27l.0490909-.04909091c.3069298-.30727153.7234212-.47992362 1.1577272-.47992362.4343061 0 .8507974.17265209 1.1577273.47992362.3072715.30692987.4799236.72342123.4799236 1.15772727s-.1726521.8507974-.4799236 1.15772727l-.0490909.04909091c-.3859084.39451642-.4928289.98419903-.27 1.48909091v.06545455c.211965.49456686.6973831.8160358 1.2354546.81818181h.1390909c.9037386 0 1.6363636.73262496 1.6363636 1.63636364s-.732625 1.6363636-1.6363636 1.6363636h-.0736364c-.5380715.002146-1.0234896.323615-1.2354545.8181819z"/></g><g stroke-width="1.9" transform="translate(6 5)"><path d="m9.5 0-9.5 4.75 9.5 4.75 9.5-4.75z"/><path d="m0 14.25 9.5 4.75 9.5-4.75"/><path d="m0 9.5 9.5 4.75 9.5-4.75"/></g><g stroke-width="1.84" transform="translate(6 74)"><path d="m9 0 9 5.85v6.3l-9 5.85-9-5.85v-6.3z"/><path d="m9 18v-5.85"/><path d="m18 5.85-9 6.3-9-6.3"/><path d="m0 12.15 9-6.3 9 6.3"/><path d="m9 0v5.85"/></g><g stroke-width="2"><g transform="translate(6 39)"><path d="m18 13.9979492v-8.00000001c-.0007321-.71379839-.3818319-1.37310099-1-1.73l-7-4c-.61880215-.35726559-1.38119785-.35726559-2 0l-7 4c-.61816808.35689901-.99926785 1.01620161-1 1.73v8.00000001c.00073215.7137984.38183192 1.373101 1 1.73l7 4c.61880215.3572656 1.38119785.3572656 2 0l7-4c.6181681-.356899.9992679-1.0162016 1-1.73z"/><path d="m4.5 2.20794919 4.5 2.6 4.5-2.6"/><path d="m4.5 17.7879492v-5.19l-4.5-2.60000001"/><path d="m18 9.99794919-4.5 2.60000001v5.19"/><path d="m.27 4.95794919 8.73 5.05000001 8.73-5.05000001"/><path d="m9 20.077949v-10.08"/></g><g transform="translate(6 139)"><path d="m18 7.5h-18"/><path d="m3.105.97125-3.105 6.02875v5.25c0 .9664983.80588745 1.75 1.8 1.75h14.4c.9941125 0 1.8-.7835017 1.8-1.75v-5.25l-3.105-6.02875c-.303957-.59470047-.9279504-.97089762-1.611-.97125h-8.568c-.68304958.00035238-1.30704299.37654953-1.611.97125z"/><path d="m3.495 10.5h.01"/><path d="m7.495 10.5h.01"/></g><g transform="translate(6 105)"><path d="m18 13.9979492v-8.00000001c-.0007321-.71379839-.3818319-1.37310099-1-1.73l-7-4c-.61880215-.35726559-1.38119785-.35726559-2 0l-7 4c-.61816808.35689901-.99926785 1.01620161-1 1.73v8.00000001c.00073215.7137984.38183192 1.373101 1 1.73l7 4c.61880215.3572656 1.38119785.3572656 2 0l7-4c.6181681-.356899.9992679-1.0162016 1-1.73z"/><path d="m.27 4.95794919 8.73 5.05000001 8.73-5.05000001"/><path d="m9 20.077949v-10.08"/></g></g></g></svg>